<?xml version="1.0" encoding="UTF-8" standalone="no"?>
<!-- Created with Inkscape (http://www.inkscape.org/) -->

<svg
   width="101.07774mm"
   height="115.60784mm"
   viewBox="0 0 101.07774 115.60784"
   version="1.1"
   id="svg1"
   xml:space="preserve"
   xmlns:xlink="http://www.w3.org/1999/xlink"
   xmlns="http://www.w3.org/2000/svg"
   xmlns:svg="http://www.w3.org/2000/svg"><defs
     id="defs1"><linearGradient
       id="linearGradient63"><stop
         style="stop-color:#ff0606;stop-opacity:1;"
         offset="0"
         id="stop63" /><stop
         style="stop-color:#7f008e;stop-opacity:1;"
         offset="0.51282054"
         id="stop67" /><stop
         style="stop-color:#1003d9;stop-opacity:1;"
         offset="0.77564102"
         id="stop70" /></linearGradient><linearGradient
       xlink:href="#linearGradient63"
       id="linearGradient64"
       x1="53.212669"
       y1="140.99019"
       x2="95.790054"
       y2="170.52295"
       gradientUnits="userSpaceOnUse" /></defs><g
     id="layer3"
     style="display:none"
     transform="translate(-49.712323,-99.486402)"><path
       style="display:inline;fill:none;stroke:#999999;stroke-width:0.264583;stroke-opacity:1"
       d="m 99.902342,214.90884 50.144528,-29.92837 v -53.88281 l -50.144528,-31.06641 -49.682299,30.86199 0.05339,53.95832 z"
       id="path18" /><path
       style="display:inline;fill:none;stroke:#999999;stroke-width:0.264583;stroke-opacity:1"
       d="m 50.132765,130.89209 v 19.3239 l 49.950465,29.89736 -0.09115,-19.96195 z"
       id="path21" /><path
       style="display:inline;fill:none;stroke:#999999;stroke-width:0.264583;stroke-opacity:1"
       d="m 66.752603,120.79847 v 19.3239 l 49.950467,29.89736 -0.0911,-19.96195 z"
       id="path21-1" /><path
       style="display:inline;fill:none;stroke:#999999;stroke-width:0.264583;stroke-opacity:1"
       d="m 83.153385,125.68493 0.128906,19.58171 49.821559,29.38174 -0.0911,-19.70414 z"
       id="path21-9" /><path
       style="display:inline;fill:none;stroke:#999999;stroke-width:0.264583;stroke-opacity:1"
       d="m 83.309082,110.26551 0.128906,19.5817 49.821562,29.38174 -0.0911,-19.70414 z"
       id="path21-9-1" /><path
       style="display:inline;fill:none;stroke:#999999;stroke-width:0.264583;stroke-opacity:1"
       d="m 50.252259,165.45238 v 19.3239 l 49.950461,29.89736 -0.0911,-19.96195 z"
       id="path21-3" /><path
       style="display:inline;fill:none;stroke:#999999;stroke-width:0.264583;stroke-opacity:1"
       d="m 50.336197,131.06123 16.242188,-10.32454 50.079365,29.38174 -16.46219,10.20211 z"
       id="path21-2" /><path
       style="display:inline;fill:none;stroke:#999999;stroke-width:0.264583;stroke-opacity:1"
       d="m 50.354739,165.59543 16.242188,-10.32454 50.079363,29.38174 -16.46219,10.20211 z"
       id="path21-2-7" /><path
       style="display:inline;fill:none;stroke:#999999;stroke-width:0.264583;stroke-opacity:1"
       d="m 66.751614,155.49048 16.242188,-10.32454 50.079358,29.38174 -16.46219,10.20211 z"
       id="path21-2-7-2" /><path
       style="display:inline;fill:none;stroke:#999999;stroke-width:0.264583;stroke-opacity:1"
       d="m 83.223749,145.23266 16.24219,-10.32454 50.079361,29.38174 -16.46219,10.20211 z"
       id="path21-2-7-2-9" /></g><g
     id="layer1"
     transform="translate(-49.712323,-99.486402)"><path
       id="rect7-6"
       style="display:inline;stroke:none;stroke-width:0.264583;stroke-opacity:1"
       d="m 50.197703,184.82688 0.136539,-19.27529 49.712878,29.34769 0.02,19.86751 z" /><path
       id="rect7-6-8"
       style="display:inline;stroke:none;stroke-width:0.264583;stroke-opacity:1"
       d="m 83.24389,145.01699 0.200992,-34.61514 49.702488,29.16472 -0.0824,35.03583 z" /><path
       id="rect7-6-8-4"
       style="display:inline;fill:#ffffff;stroke:none;stroke-width:0.264583;stroke-opacity:1"
       d="m 66.844531,140.66644 -0.05682,-19.91983 49.702489,29.16472 -0.0824,19.82489 z" /><path
       id="rect7-6-8-3"
       style="display:inline;fill:none;stroke:#000000;stroke-width:2;stroke-linecap:round;stroke-linejoin:round;stroke-dasharray:none;stroke-opacity:1"
       d="m 132.98805,140.08962 16.79214,-9.04746 c 0.0201,17.98201 0.006,35.96399 -0.0111,53.94599 L 99.928892,214.0943 99.351155,195.11393 133.1659,174.26457 Z m -48.858497,-29.27967 15.965307,-10.32357 49.62832,30.47344 -16.47445,9.10295 z" /><path
       id="rect7-6-8-3-4"
       style="display:inline;fill:none;stroke:#000000;stroke-width:2;stroke-linecap:round;stroke-linejoin:round;stroke-dasharray:none;stroke-opacity:1"
       d="m 51.104125,165.74002 32.201017,-20.498 49.920008,29.07111 -33.254369,20.22553 z" /></g><g
     id="layer2"
     style="display:inline"
     transform="translate(-49.712323,-99.486402)"><path
       id="rect7-6-8-3-6"
       style="display:inline;fill:#ffffff;stroke:#000000;stroke-width:2;stroke-linecap:round;stroke-linejoin:round;stroke-dasharray:none;stroke-opacity:1"
       d="m 100.0261,160.31341 16.24524,-9.83559 -0.231,22.60875 -16.276504,11.86226 z M 66.958585,121.08323 116.27306,150.50105 100.23998,160.54713 50.99109,130.8345 Z" /><path
       id="rect7-6-4"
       style="display:inline;fill:url(#linearGradient64);fill-opacity:1;stroke:#000000;stroke-width:2;stroke-linecap:round;stroke-linejoin:round;stroke-dasharray:none;stroke-opacity:1"
       d="m 51.015896,155.87116 -0.303575,-24.25997 49.068352,28.70316 0.331207,24.4342 z" /></g></svg>
